<svg width="155" height="44" viewBox="0 0 155 44" fill="none" xmlns="http://www.w3.org/2000/svg">
<path d="M4.572 11.328L5.652 11.4V28.428C5.652 29.7 5.916 30.708 6.444 31.452C6.972 32.196 7.704 32.568 8.64 32.568C8.688 32.568 8.712 32.64 8.712 32.784C8.712 32.928 8.688 33 8.64 33C7.968 33 7.452 32.988 7.092 32.964L5.148 32.928L2.916 32.964C2.508 32.988 1.92 33 1.152 33C1.08 33 1.044 32.928 1.044 32.784C1.044 32.64 1.08 32.568 1.152 32.568C2.208 32.568 3.036 32.196 3.636 31.452C4.26 30.708 4.572 29.7 4.572 28.428V11.328ZM22.932 33.54C22.932 33.612 22.872 33.66 22.752 33.684C22.656 33.708 22.584 33.696 22.536 33.648L4.788 13.452C3.948 12.492 3.228 11.832 2.628 11.472C2.028 11.112 1.416 10.932 0.792 10.932C0.744 10.932 0.72 10.86 0.72 10.716C0.72 10.572 0.744 10.5 0.792 10.5L2.304 10.536C2.616 10.56 3.072 10.572 3.672 10.572L6.408 10.536C6.744 10.512 7.152 10.5 7.632 10.5C7.824 10.5 7.968 10.548 8.064 10.644C8.16 10.74 8.328 10.944 8.568 11.256C8.976 11.808 9.264 12.18 9.432 12.372L22.644 27.6L22.932 33.54ZM22.932 33.54L21.888 32.46V15.108C21.888 13.812 21.624 12.792 21.096 12.048C20.568 11.304 19.836 10.932 18.9 10.932C18.852 10.932 18.828 10.86 18.828 10.716C18.828 10.572 18.852 10.5 18.9 10.5L20.448 10.536C21.216 10.584 21.864 10.608 22.392 10.608C22.872 10.608 23.544 10.584 24.408 10.536L26.028 10.5C26.076 10.5 26.1 10.572 26.1 10.716C26.1 10.86 26.076 10.932 26.028 10.932C25.068 10.932 24.312 11.316 23.76 12.084C23.208 12.828 22.932 13.836 22.932 15.108V33.54ZM36.3007 33.432C34.4287 33.432 32.8327 33.036 31.5127 32.244C30.2167 31.428 29.2327 30.372 28.5607 29.076C27.8887 27.78 27.5527 26.376 27.5527 24.864C27.5527 23.208 27.9607 21.696 28.7767 20.328C29.5927 18.936 30.6967 17.844 32.0887 17.052C33.4807 16.236 34.9927 15.828 36.6247 15.828C38.4007 15.828 39.7567 16.296 40.6927 17.232C41.6287 18.168 42.0967 19.392 42.0967 20.904C42.0967 21.216 42.0607 21.432 41.9887 21.552C41.9407 21.672 41.8327 21.732 41.6647 21.732H38.2087C38.3047 20.1 38.1127 18.852 37.6327 17.988C37.1767 17.124 36.4327 16.692 35.4007 16.692C34.1527 16.692 33.1687 17.292 32.4487 18.492C31.7287 19.692 31.3687 21.3 31.3687 23.316C31.3687 25.98 31.9567 28.104 33.1327 29.688C34.3087 31.272 35.9647 32.064 38.1007 32.064C38.7007 32.064 39.3127 31.98 39.9367 31.812C40.5607 31.644 41.1127 31.392 41.5927 31.056H41.6287C41.7007 31.056 41.7607 31.104 41.8087 31.2C41.8807 31.272 41.8927 31.344 41.8447 31.416C40.1647 32.76 38.3167 33.432 36.3007 33.432ZM29.4967 21.084L39.9007 20.904V21.732L29.5327 21.768L29.4967 21.084ZM69.7492 16.152C69.7972 16.152 69.8212 16.224 69.8212 16.368C69.8212 16.512 69.7972 16.584 69.7492 16.584C68.8852 16.584 68.1412 16.908 67.5172 17.556C66.8932 18.18 66.2812 19.212 65.6812 20.652L60.8932 32.964C60.8692 33.06 60.7372 33.108 60.4972 33.108C60.2572 33.108 60.1252 33.06 60.1012 32.964L53.4412 19.14C52.9612 18.108 52.5772 17.424 52.2892 17.088C52.0012 16.752 51.6772 16.584 51.3172 16.584C51.2692 16.584 51.2452 16.512 51.2452 16.368C51.2452 16.224 51.2692 16.152 51.3172 16.152L52.3252 16.188C53.1412 16.236 53.7892 16.26 54.2692 16.26C54.5812 16.26 55.0972 16.236 55.8172 16.188L56.8612 16.152C56.9092 16.152 56.9332 16.224 56.9332 16.368C56.9332 16.512 56.9092 16.584 56.8612 16.584C56.5492 16.584 56.3932 16.68 56.3932 16.872C56.3932 17.016 56.4652 17.256 56.6092 17.592C56.7532 17.928 56.9452 18.324 57.1852 18.78L62.1892 28.932L60.3532 32.28L64.6732 20.616C65.0572 19.608 65.2492 18.744 65.2492 18.024C65.2492 17.064 64.8892 16.584 64.1692 16.584C64.1212 16.584 64.0972 16.512 64.0972 16.368C64.0972 16.224 64.1212 16.152 64.1692 16.152L65.1412 16.188C65.6692 16.236 66.1372 16.26 66.5452 16.26C67.0252 16.26 67.5772 16.236 68.2012 16.188L69.7492 16.152ZM52.9732 32.964C52.9492 33.06 52.8172 33.108 52.5772 33.108C52.3372 33.108 52.2052 33.06 52.1812 32.964L45.4852 19.14C45.0052 18.132 44.5852 17.46 44.2252 17.124C43.8652 16.764 43.3732 16.584 42.7492 16.584C42.6772 16.584 42.6412 16.512 42.6412 16.368C42.6412 16.224 42.6772 16.152 42.7492 16.152C43.0852 16.152 43.6372 16.176 44.4052 16.224L45.9892 16.26C46.8292 16.26 47.6812 16.236 48.5452 16.188C48.7852 16.164 49.0732 16.152 49.4092 16.152C49.4572 16.152 49.4812 16.224 49.4812 16.368C49.4812 16.512 49.4572 16.584 49.4092 16.584C49.1452 16.584 48.9532 16.62 48.8332 16.692C48.7132 16.764 48.6532 16.896 48.6532 17.088C48.6532 17.352 48.8572 17.916 49.2652 18.78L54.3052 28.932L52.4692 32.208L56.1052 23.604L56.7532 24.216L52.9732 32.964ZM58.5892 19.608C58.9012 18.696 59.0572 18.012 59.0572 17.556C59.0572 16.908 58.8292 16.584 58.3732 16.584C58.3012 16.584 58.2652 16.512 58.2652 16.368C58.2652 16.224 58.3012 16.152 58.3732 16.152C58.5892 16.152 58.9252 16.176 59.3812 16.224C59.8372 16.248 60.2932 16.26 60.7492 16.26C61.1572 16.26 61.5532 16.236 61.9372 16.188L62.9812 16.152C63.0532 16.152 63.0892 16.224 63.0892 16.368C63.0892 16.512 63.0532 16.584 62.9812 16.584C62.3092 16.584 61.7692 16.68 61.3612 16.872C60.9532 17.064 60.5932 17.388 60.2812 17.844C59.9932 18.276 59.6452 18.936 59.2372 19.824L57.4372 24.216L57.1132 23.604L58.5892 19.608Z" fill="#8D6E3D"/>
<path d="M85.6446 29.94C85.6446 30.564 85.6926 31.02 85.7886 31.308C85.8846 31.572 86.0646 31.752 86.3286 31.848C86.6166 31.944 87.0726 31.992 87.6966 31.992H88.9206C90.7926 31.992 92.4126 31.5 93.7806 30.516C95.1486 29.508 96.0606 28.152 96.5166 26.448C96.5166 26.4 96.5646 26.376 96.6606 26.376C96.7086 26.376 96.7566 26.4 96.8046 26.448C96.8766 26.472 96.9126 26.496 96.9126 26.52C96.6966 28.896 96.5886 30.876 96.5886 32.46C96.5886 32.652 96.5406 32.796 96.4446 32.892C96.3726 32.964 96.2406 33 96.0486 33H79.0566C79.0086 33 78.9846 32.928 78.9846 32.784C78.9846 32.64 79.0086 32.568 79.0566 32.568C79.8246 32.568 80.3766 32.508 80.7126 32.388C81.0726 32.268 81.3126 32.04 81.4326 31.704C81.5766 31.344 81.6486 30.804 81.6486 30.084V13.416C81.6486 12.696 81.5766 12.168 81.4326 11.832C81.3126 11.496 81.0726 11.268 80.7126 11.148C80.3526 11.004 79.8006 10.932 79.0566 10.932C79.0086 10.932 78.9846 10.86 78.9846 10.716C78.9846 10.572 79.0086 10.5 79.0566 10.5L80.8926 10.536C81.9966 10.584 82.9086 10.608 83.6286 10.608C84.3486 10.608 85.2606 10.584 86.3646 10.536L88.2006 10.5C88.2726 10.5 88.3086 10.572 88.3086 10.716C88.3086 10.86 88.2726 10.932 88.2006 10.932C87.4566 10.932 86.9046 11.004 86.5446 11.148C86.1846 11.268 85.9446 11.508 85.8246 11.868C85.7046 12.204 85.6446 12.732 85.6446 13.452V29.94ZM107.494 33.432C105.79 33.432 104.266 33.036 102.922 32.244C101.578 31.428 100.534 30.348 99.7898 29.004C99.0458 27.636 98.6738 26.16 98.6738 24.576C98.6738 22.752 99.1418 21.168 100.078 19.824C101.038 18.48 102.25 17.46 103.714 16.764C105.202 16.068 106.726 15.72 108.286 15.72C109.99 15.72 111.49 16.14 112.786 16.98C114.106 17.796 115.126 18.876 115.846 20.22C116.566 21.54 116.926 22.932 116.926 24.396C116.926 26.004 116.506 27.504 115.666 28.896C114.826 30.264 113.686 31.368 112.246 32.208C110.806 33.024 109.222 33.432 107.494 33.432ZM108.322 32.604C109.666 32.604 110.746 31.944 111.562 30.624C112.402 29.304 112.822 27.48 112.822 25.152C112.822 23.568 112.582 22.128 112.102 20.832C111.622 19.536 110.938 18.516 110.05 17.772C109.186 17.004 108.178 16.62 107.026 16.62C105.634 16.62 104.578 17.196 103.858 18.348C103.138 19.5 102.778 21.204 102.778 23.46C102.778 25.164 103.018 26.724 103.498 28.14C104.002 29.532 104.674 30.624 105.514 31.416C106.354 32.208 107.29 32.604 108.322 32.604ZM124.32 33.432C122.616 33.432 121.092 33.036 119.748 32.244C118.404 31.428 117.36 30.348 116.616 29.004C115.872 27.636 115.5 26.16 115.5 24.576C115.5 22.752 115.968 21.168 116.904 19.824C117.864 18.48 119.076 17.46 120.54 16.764C122.028 16.068 123.552 15.72 125.112 15.72C126.816 15.72 128.316 16.14 129.612 16.98C130.932 17.796 131.952 18.876 132.672 20.22C133.392 21.54 133.752 22.932 133.752 24.396C133.752 26.004 133.332 27.504 132.492 28.896C131.652 30.264 130.512 31.368 129.072 32.208C127.632 33.024 126.048 33.432 124.32 33.432ZM125.148 32.604C126.492 32.604 127.572 31.944 128.388 30.624C129.228 29.304 129.648 27.48 129.648 25.152C129.648 23.568 129.408 22.128 128.928 20.832C128.448 19.536 127.764 18.516 126.876 17.772C126.012 17.004 125.004 16.62 123.852 16.62C122.46 16.62 121.404 17.196 120.684 18.348C119.964 19.5 119.604 21.204 119.604 23.46C119.604 25.164 119.844 26.724 120.324 28.14C120.828 29.532 121.5 30.624 122.34 31.416C123.18 32.208 124.116 32.604 125.148 32.604ZM132.325 33C132.277 33 132.253 32.928 132.253 32.784C132.253 32.64 132.277 32.568 132.325 32.568C133.021 32.568 133.525 32.508 133.837 32.388C134.173 32.268 134.401 32.04 134.521 31.704C134.641 31.344 134.701 30.804 134.701 30.084V19.068C134.701 18.348 134.641 17.82 134.521 17.484C134.401 17.148 134.173 16.92 133.837 16.8C133.525 16.656 133.045 16.584 132.397 16.584C132.325 16.584 132.289 16.512 132.289 16.368C132.289 16.224 132.325 16.152 132.397 16.152L134.125 16.188C135.085 16.236 135.865 16.26 136.465 16.26C137.113 16.26 137.917 16.236 138.877 16.188L140.605 16.152C140.653 16.152 140.677 16.224 140.677 16.368C140.677 16.512 140.653 16.584 140.605 16.584C139.645 16.584 139.009 16.752 138.697 17.088C138.409 17.424 138.265 18.108 138.265 19.14V30.084C138.265 30.804 138.325 31.332 138.445 31.668C138.565 32.004 138.781 32.244 139.093 32.388C139.429 32.508 139.933 32.568 140.605 32.568C140.653 32.568 140.677 32.64 140.677 32.784C140.677 32.928 140.653 33 140.605 33C139.861 33 139.285 32.988 138.877 32.964L136.465 32.928L134.125 32.964C133.693 32.988 133.093 33 132.325 33ZM146.869 33C146.725 33 146.461 33 146.077 33C145.693 33.024 145.081 32.448 144.241 31.272C143.425 30.072 142.597 28.908 141.757 27.78L139.021 24.144L141.613 21.66L144.817 25.872C146.329 27.888 147.469 29.352 148.237 30.264C149.029 31.176 149.665 31.788 150.145 32.1C150.625 32.412 151.129 32.568 151.657 32.568C151.729 32.568 151.765 32.64 151.765 32.784C151.765 32.928 151.729 33 151.657 33H146.869ZM142.621 19.608C143.629 18.6 144.133 17.82 144.133 17.268C144.133 16.812 143.761 16.584 143.017 16.584C142.969 16.584 142.945 16.512 142.945 16.368C142.945 16.224 142.969 16.152 143.017 16.152L144.529 16.188C145.441 16.236 146.293 16.26 147.085 16.26C148.117 16.26 149.041 16.236 149.857 16.188C150.097 16.164 150.373 16.152 150.685 16.152C150.757 16.152 150.793 16.224 150.793 16.368C150.793 16.512 150.757 16.584 150.685 16.584C149.749 16.584 148.561 16.932 147.121 17.628C145.681 18.324 144.457 19.176 143.449 20.184L137.041 26.592L135.817 26.376L142.621 19.608Z" fill="#EDEDED"/>
<path d="M107.5 27C107.5 26.3056 107.743 25.7153 108.229 25.2292C108.715 24.7431 109.306 24.5 110 24.5C109.306 24.5 108.715 24.2569 108.229 23.7708C107.743 23.2847 107.5 22.6944 107.5 22C107.5 22.6944 107.257 23.2847 106.771 23.7708C106.285 24.2569 105.694 24.5 105 24.5C105.694 24.5 106.285 24.7431 106.771 25.2292C107.257 25.7153 107.5 26.3056 107.5 27Z" fill="#8D6E3D"/>
<path d="M124.5 27C124.5 26.3056 124.743 25.7153 125.229 25.2292C125.715 24.7431 126.306 24.5 127 24.5C126.306 24.5 125.715 24.2569 125.229 23.7708C124.743 23.2847 124.5 22.6944 124.5 22C124.5 22.6944 124.257 23.2847 123.771 23.7708C123.285 24.2569 122.694 24.5 122 24.5C122.694 24.5 123.285 24.7431 123.771 25.2292C124.257 25.7153 124.5 26.3056 124.5 27Z" fill="#8D6E3D"/>
</svg>
